<svg xmlns="http://www.w3.org/2000/svg" width="654" height="791" stroke="none" stroke-linecap="round" stroke-linejoin="round" fill="#6e57e0" fill-rule="evenodd"><path d="M653.3526 148.125H0l54.4483 567.8141 272.2258 74.0627 272.2263-74.0627 54.4522-567.8141M76.2243 0v108.6268h32.667v-39.503h43.5528v39.503h32.6672V0h-32.6672v39.4986h-43.5528V0z"/><path d="M337.5649 0v108.6268h32.667v-59.25l27.2214 39.4982 27.2269-39.4982v59.25h32.671V0h-32.671l-27.2269 34.5642L370.2319 0zm141.5594 0v108.6268h98.0011V79.0017h-65.3341V0z"/><path d="M243.5528 643.9433l-89.4574-24.3318-7.2917-76.0507-2.4033-25.1233h87.1153l4.7454 49.4606 90.4099 24.603v74.0615zm83.1232-323.0047H212.5758l7.1044 74.0615H326.676v74.0639h-99.8964-87.1192l-7.0953-74.0639-7.1089-74.0615-7.0951-74.0636h87.1153H326.676z" fill="#fff"/><path d="M563.3986 518.4358l4.7315-49.3716 7.1044-74.0626 7.0997-74.0625 7.1045-74.0623 4.7314-49.3768H326.6757v543.1234l165.2841-44.9636 55.9008-15.2112 7.2916-76.0422 7.2916-76.0534zM206.8946 0v29.6249h38.1167v79.0019h32.6668V29.6249h38.1035V0z"/><path d="M326.6757 320.9386h114.1004 87.1195l7.095-74.0636h-87.1194-121.1955zm99.8962 148.125h-99.8962V395h106.9957 87.1152l-7.0951 74.0636-4.7452 49.3755-2.4033 25.1268-7.2917 76.0484-89.4441 24.3316-83.1315 22.6183v-74.0626l90.4233-24.6004 4.7416-49.4621z" fill="#fff"/></svg>